{"title":"Revolvert.2005.SWESUB.DVDRip.XviD.AC3.(5.1).-Zen_Bud","uid":5698081,"size":1470700788,"categoryP":"video","categoryS":"movies","magnet":"?xt=urn:btih:a78952a7a8ec32e9187927e5896a33c243f0a280&amp;dn=Revolvert.2005.SWESUB.DVDRip.XviD.AC3.%285.1%29.-Zen_Bud&amp;tr=udp%3A%2F%2Ftracker.openbittorrent.com%3A80&amp;tr=udp%3A%2F%2Fopen.demonii.com%3A1337&amp;tr=udp%3A%2F%2Ftracker.coppersurfer.tk%3A6969&amp;tr=udp%3A%2F%2Fexodus.desync.com%3A6969","seeders":0,"leechers":1,"uploader":"Zen_Bud","files":1,"time":1279385554,"description":"General\nComplete name                    : Revolver.2005.avi\nFormat                           : AVI\nFile size                        : 1.37 GiB\nDuration                         : 1h 41mn\nOverall bit rate                 : 1 934 Kbps\n\nVideo\n\nFormat                           : MPEG-4 Visual\nCodec ID/Hint                    : XviD\nDuration                         : 1h 41mn\nBit rate                         : 1 475 Kbps\nWidth                            : 720 pixels\nHeight                           : 436 pixels\nDisplay aspect ratio             : 2.35:1\nStream size                      : 1.04 GiB (76%)\nWriting library                  : XviD 1.1.2 (UTC 2006-11-01)\n\nAudio\n\nFormat                           : AC-3\nDuration                         : 1h 41mn\nBit rate                         : 448 Kbps\nChannel(s)                       : 6 channels\nChannel positions                : Front: L C R, Side: L R, LFE\nSampling rate                    : 48.0 KHz\nStream size                      : 325 MiB (23%)\n\n\n","torrent":{"xt":"urn:btih:a78952a7a8ec32e9187927e5896a33c243f0a280","amp;dn":"Revolvert.2005.SWESUB.DVDRip.XviD.AC3.%285.1%29.-Zen_Bud","amp;tr":["udp%3A%2F%2Ftracker.openbittorrent.com%3A80","udp%3A%2F%2Fopen.demonii.com%3A1337","udp%3A%2F%2Ftracker.coppersurfer.tk%3A6969","udp%3A%2F%2Fexodus.desync.com%3A6969"],"infoHash":"a78952a7a8ec32e9187927e5896a33c243f0a280","infoHashBuffer":{"type":"Buffer","data":[167,137,82,167,168,236,50,233,24,121,39,229,137,106,51,194,67,240,162,128]},"announce":[],"urlList":[]}}